<svg width="29" height="29" viewBox="0 0 29 29" fill="none" xmlns="http://www.w3.org/2000/svg">
<g clip-path="url(#clip0_1_13)">
<path d="M12.0838 24.1667C14.8713 24.1703 17.5735 23.2059 19.7289 21.4383L26.9378 28.646C27.1657 28.8661 27.4709 28.9879 27.7878 28.9851C28.1046 28.9824 28.4076 28.8553 28.6317 28.6313C28.8557 28.4072 28.9828 28.1042 28.9855 27.7873C28.9883 27.4705 28.8665 27.1653 28.6464 26.9374L21.4387 19.7285C23.1746 17.6038 24.1357 14.9517 24.1641 12.2082C24.1924 9.46471 23.2863 6.79327 21.5947 4.6332C19.903 2.47313 17.5267 0.953061 14.8564 0.322974C12.1861 -0.307113 9.38088 -0.00969629 6.90208 1.16631C4.42327 2.34232 2.41848 4.32689 1.21741 6.79365C0.0163431 9.26041 -0.309489 12.0625 0.293502 14.739C0.896493 17.4155 2.3924 19.8072 4.53522 21.5206C6.67803 23.234 9.34015 24.1672 12.0838 24.1667Z" fill="white"/>
</g>
<defs>
<clipPath id="clip0_1_13">
<rect width="29" height="29" fill="white"/>
</clipPath>
</defs>
</svg>
